<svg width="26" height="26" viewBox="0 0 26 26" fill="none" xmlns="http://www.w3.org/2000/svg">
<path d="M20.5833 10.8333H5.41667C4.22005 10.8333 3.25 11.8034 3.25 13V21.6667C3.25 22.8633 4.22005 23.8333 5.41667 23.8333H20.5833C21.78 23.8333 22.75 22.8633 22.75 21.6667V13C22.75 11.8034 21.78 10.8333 20.5833 10.8333Z" stroke="#D6CACA" stroke-width="2" stroke-linecap="round" stroke-linejoin="round"/>
<path d="M6.5 6.5C6.5 5.63805 6.84241 4.8114 7.4519 4.2019C8.0614 3.59241 8.88805 3.25 9.75 3.25H16.25C17.112 3.25 17.9386 3.59241 18.5481 4.2019C19.1576 4.8114 19.5 5.63805 19.5 6.5V10.8333H6.5V6.5Z" stroke="#D6CACA" stroke-width="2" stroke-linecap="round" stroke-linejoin="round"/>
</svg>
