<svg width="32" height="32" viewBox="0 0 32 32" fill="none" xmlns="http://www.w3.org/2000/svg">
<path d="M16.563 22.4895C15.0875 21.308 12.695 21.308 11.2195 22.4895C9.74551 23.6715 9.74551 25.587 11.2195 26.769C12.6945 27.951 15.087 27.951 16.563 26.769C18.0375 25.587 18.0375 23.6715 16.563 22.4895Z" fill="#85B6FF"/>
<path d="M10.893 20.785C12.0365 19.3645 11.6495 17.57 10.0295 16.778C8.40903 15.9865 6.16953 16.496 5.02603 17.9165C3.88403 19.337 4.27003 21.1315 5.88953 21.9235C7.51053 22.716 9.75052 22.206 10.893 20.785" fill="#85B6FF"/>
<path d="M9.3415 14.009C10.436 12.786 10.1715 11.1525 8.75 10.3605C7.329 9.568 5.2905 9.917 4.1955 11.14C3.1005 12.363 3.3655 13.996 4.7865 14.788C6.2075 15.5805 8.247 15.2315 9.3415 14.009Z" fill="#85B6FF"/>
<path d="M10.35 9.65401C11.709 10.445 13.6845 10.144 14.7615 8.9835C15.839 7.8225 15.6115 6.24101 14.253 5.45051C12.8945 4.65951 10.919 4.96001 9.84199 6.12051C8.76399 7.28151 8.99149 8.86301 10.35 9.65401" fill="#85B6FF"/>
<path d="M21.823 7.6355C23.033 7.017 23.1675 5.802 22.123 4.9205C21.0795 4.039 19.25 3.8255 18.0395 4.4435C16.8285 5.0615 16.6945 6.277 17.739 7.1585C18.7835 8.04 20.613 8.2535 21.823 7.6355Z" fill="#85B6FF"/>
<path d="M26.2375 16.5995C25.1555 16.2815 24.222 16.0065 23.9655 15.37C23.817 15.001 23.875 14.459 24.127 13.7595C26.81 11.2495 30.824 7.205 30.711 5.5615C30.666 4.9045 29.619 3.9635 28.9325 3.9635L28.8785 3.9655C28.1355 4.0165 27 4.9995 25.787 6.3305C25.6852 6.0252 25.5545 5.73035 25.3965 5.45C24.124 3.2575 21.3265 2 17.722 2C14.9195 2 11.799 2.7725 8.69948 4.234C4.72098 6.11 1.74948 10.022 1.12948 14.201C0.668484 17.304 1.21948 21.997 6.45848 26.7385C8.78148 28.842 12.4395 30 16.757 30H16.7585C20.2245 30 23.736 29.2285 26.394 27.885C29.3645 26.3825 31 24.3045 31 22.033C31 18 28.247 17.1905 26.2375 16.5995ZM28.9325 4.7135C29.248 4.7135 29.946 5.3685 29.9625 5.6125C30.058 7.004 25.101 11.936 21.7875 14.877L21.2225 14.3855L20.853 14.063C23.319 10.384 27.536 4.8085 28.9325 4.7135V4.7135ZM19.633 15.53L20.394 14.6575L21.2595 15.4125L20.5 16.2845L19.633 15.53V15.53ZM25.943 26.992C23.42 28.268 20.073 29 16.7585 29H16.7575C12.6875 29 9.26848 27.9335 7.12948 25.997C2.21748 21.5525 1.69298 17.209 2.11748 14.3475C2.69048 10.4905 5.44148 6.876 9.12698 5.1385C12.0935 3.7395 15.066 3 17.722 3C20.9135 3 23.4585 4.1035 24.531 5.952C24.762 6.3495 24.917 6.7745 25.007 7.2195C22.768 9.861 20.494 13.246 20.0595 13.899L18.671 15.491C17.942 15.4835 17.212 15.802 16.987 16.5715C16.158 19.399 14.3115 21.1525 14.3115 21.1525C14.3115 21.1525 18.992 20.2275 19.8875 19.1765C20.3725 18.6075 20.6075 17.9275 20.602 17.3075L22.056 15.6405C22.25 15.47 22.5385 15.2135 22.894 14.8925C22.892 15.2045 22.935 15.4895 23.037 15.7435C23.4745 16.8295 24.679 17.1835 25.9545 17.5585C27.943 18.1435 29.9995 18.748 29.9995 22.033C30 23.908 28.5585 25.669 25.943 26.992" fill="#85B6FF"/>
<path d="M27.0605 19.9035C25.5855 18.722 23.1925 18.722 21.7175 19.9035C20.2425 21.085 20.243 23.001 21.7175 24.183C23.192 25.365 25.585 25.3645 27.0605 24.183C28.536 23.0015 28.5355 21.085 27.0605 19.9035ZM26.334 23.6005C25.2605 24.461 23.5175 24.461 22.4445 23.6005C21.371 22.74 21.371 21.3455 22.4445 20.4855C23.5175 19.625 25.2605 19.625 26.334 20.4855C27.4075 21.346 27.4075 22.74 26.334 23.6005" fill="#85B6FF"/>
</svg>
