<svg width="32" height="32" viewBox="0 0 48 48" fill="none" xmlns="http://www.w3.org/2000/svg">
<path opacity="0.3" d="M24.12 20.04L10 34.16V36H11.84L25.96 21.88L24.12 20.04Z" fill="#FFFFFF"/>
<path d="M30 32L22 40H42V32H30ZM24.12 14.38L6 32.5V40H13.5L31.62 21.88L24.12 14.38ZM11.84 36H10V34.16L24.12 20.04L25.96 21.88L11.84 36ZM37.42 16.08C37.6054 15.8949 37.7525 15.6752 37.8529 15.4332C37.9532 15.1913 38.0049 14.9319 38.0049 14.67C38.0049 14.408 37.9532 14.1487 37.8529 13.9067C37.7525 13.6648 37.6054 13.445 37.42 13.26L32.74 8.57997C32.365 8.20796 31.8582 7.99921 31.33 7.99921C30.8018 7.99921 30.295 8.20796 29.92 8.57997L26.26 12.24L33.76 19.74L37.42 16.08Z" fill="#FFFFFF"/>
</svg>
